<?xml version="1.0" encoding="UTF-8"?>
<svg id="_레이어_1" xmlns="http://www.w3.org/2000/svg" version="1.1" viewBox="0 0 32 32">
  <!-- Generator: Adobe Illustrator 29.2.1, SVG Export Plug-In . SVG Version: 2.1.0 Build 116)  -->
  <defs>
    <style>
      .st0 {
        fill: #fe285e;
      }
    </style>
  </defs>
  <path class="st0" d="M2.4,0c-.5,0-1,.4-1,.9v30.2c0,.5.4.9,1,.9,5.1-.3,28.2-2.5,28.2-16S7.5.3,2.4,0ZM17.4,20.9c-.9.7-2.2,1.9-3.4,1.7-1-.2-4.4-3.7-5.1-4.6-.6-.7-1.4-1.5-.9-2.4.3-.5,1.5-1.8,1.9-2.3.6-.8,3.3-3.4,4.2-3.6.8-.2,1.3.5,1.9.9.6.4,1.6,1.3,2.2,1.9.6.6,2.9,2.9,2.9,3.8s-2.9,3.9-3.7,4.6Z"/>
</svg>